<svg id="visual" viewBox="0 0 1920 1920" width="1920" height="1920" xmlns="http://www.w3.org/2000/svg" xmlns:xlink="http://www.w3.org/1999/xlink" version="1.1"><rect x="0" y="0" width="1920" height="1920" fill="#FFFFFF"></rect><path d="M0 1208L45.7 1226.3C91.3 1244.7 182.7 1281.3 274.2 1291.2C365.7 1301 457.3 1284 548.8 1273.7C640.3 1263.3 731.7 1259.7 823 1242.8C914.3 1226 1005.7 1196 1097 1191.2C1188.3 1186.3 1279.7 1206.7 1371.2 1247C1462.7 1287.3 1554.3 1347.7 1645.8 1353.5C1737.3 1359.3 1828.7 1310.7 1874.3 1286.3L1920 1262L1920 1921L1874.3 1921C1828.7 1921 1737.3 1921 1645.8 1921C1554.3 1921 1462.7 1921 1371.2 1921C1279.7 1921 1188.3 1921 1097 1921C1005.7 1921 914.3 1921 823 1921C731.7 1921 640.3 1921 548.8 1921C457.3 1921 365.7 1921 274.2 1921C182.7 1921 91.3 1921 45.7 1921L0 1921Z" fill="#363636"></path><path d="M0 1362L45.7 1366.2C91.3 1370.3 182.7 1378.7 274.2 1370.3C365.7 1362 457.3 1337 548.8 1353.8C640.3 1370.7 731.7 1429.3 823 1449.3C914.3 1469.3 1005.7 1450.7 1097 1425.8C1188.3 1401 1279.7 1370 1371.2 1342.8C1462.7 1315.7 1554.3 1292.3 1645.8 1282.5C1737.3 1272.7 1828.7 1276.3 1874.3 1278.2L1920 1280L1920 1921L1874.3 1921C1828.7 1921 1737.3 1921 1645.8 1921C1554.3 1921 1462.7 1921 1371.2 1921C1279.7 1921 1188.3 1921 1097 1921C1005.7 1921 914.3 1921 823 1921C731.7 1921 640.3 1921 548.8 1921C457.3 1921 365.7 1921 274.2 1921C182.7 1921 91.3 1921 45.7 1921L0 1921Z" fill="#454a4f"></path><path d="M0 1559L45.7 1549.8C91.3 1540.7 182.7 1522.3 274.2 1506.3C365.7 1490.3 457.3 1476.7 548.8 1462.5C640.3 1448.3 731.7 1433.7 823 1451.5C914.3 1469.3 1005.7 1519.7 1097 1556C1188.3 1592.3 1279.7 1614.7 1371.2 1587.3C1462.7 1560 1554.3 1483 1645.8 1443.7C1737.3 1404.3 1828.7 1402.7 1874.3 1401.8L1920 1401L1920 1921L1874.3 1921C1828.7 1921 1737.3 1921 1645.8 1921C1554.3 1921 1462.7 1921 1371.2 1921C1279.7 1921 1188.3 1921 1097 1921C1005.7 1921 914.3 1921 823 1921C731.7 1921 640.3 1921 548.8 1921C457.3 1921 365.7 1921 274.2 1921C182.7 1921 91.3 1921 45.7 1921L0 1921Z" fill="#555e69"></path><path d="M0 1713L45.7 1692.8C91.3 1672.7 182.7 1632.3 274.2 1635.5C365.7 1638.7 457.3 1685.3 548.8 1687.7C640.3 1690 731.7 1648 823 1637.5C914.3 1627 1005.7 1648 1097 1661C1188.3 1674 1279.7 1679 1371.2 1657.7C1462.7 1636.3 1554.3 1588.7 1645.8 1596.2C1737.3 1603.7 1828.7 1666.3 1874.3 1697.7L1920 1729L1920 1921L1874.3 1921C1828.7 1921 1737.3 1921 1645.8 1921C1554.3 1921 1462.7 1921 1371.2 1921C1279.7 1921 1188.3 1921 1097 1921C1005.7 1921 914.3 1921 823 1921C731.7 1921 640.3 1921 548.8 1921C457.3 1921 365.7 1921 274.2 1921C182.7 1921 91.3 1921 45.7 1921L0 1921Z" fill="#657484"></path><path d="M0 1821L45.7 1813C91.3 1805 182.7 1789 274.2 1767C365.7 1745 457.3 1717 548.8 1725C640.3 1733 731.7 1777 823 1800C914.3 1823 1005.7 1825 1097 1803.8C1188.3 1782.7 1279.7 1738.3 1371.2 1728.3C1462.7 1718.3 1554.3 1742.7 1645.8 1765.5C1737.3 1788.3 1828.7 1809.7 1874.3 1820.3L1920 1831L1920 1921L1874.3 1921C1828.7 1921 1737.3 1921 1645.8 1921C1554.3 1921 1462.7 1921 1371.2 1921C1279.7 1921 1188.3 1921 1097 1921C1005.7 1921 914.3 1921 823 1921C731.7 1921 640.3 1921 548.8 1921C457.3 1921 365.7 1921 274.2 1921C182.7 1921 91.3 1921 45.7 1921L0 1921Z" fill="#748aa0"></path></svg>