<svg id="visual" viewBox="0 0 1920 1620" width="1920" height="1620" xmlns="http://www.w3.org/2000/svg" xmlns:xlink="http://www.w3.org/1999/xlink" version="1.1"><rect x="0" y="0" width="1920" height="1620" fill="#FFFFFF"></rect><path d="M0 1019L45.7 1034.5C91.3 1050 182.7 1081 274.2 1089.3C365.7 1097.7 457.3 1083.3 548.8 1074.5C640.3 1065.7 731.7 1062.3 823 1048.2C914.3 1034 1005.7 1009 1097 1005C1188.3 1001 1279.7 1018 1371.2 1052C1462.7 1086 1554.3 1137 1645.8 1142C1737.3 1147 1828.7 1106 1874.3 1085.5L1920 1065L1920 1621L1874.3 1621C1828.7 1621 1737.3 1621 1645.8 1621C1554.3 1621 1462.7 1621 1371.2 1621C1279.7 1621 1188.3 1621 1097 1621C1005.7 1621 914.3 1621 823 1621C731.7 1621 640.3 1621 548.8 1621C457.3 1621 365.7 1621 274.2 1621C182.7 1621 91.3 1621 45.7 1621L0 1621Z" fill="#363636"></path><path d="M0 1149L45.7 1152.5C91.3 1156 182.7 1163 274.2 1156C365.7 1149 457.3 1128 548.8 1142.3C640.3 1156.7 731.7 1206.3 823 1223.2C914.3 1240 1005.7 1224 1097 1202.8C1188.3 1181.7 1279.7 1155.3 1371.2 1132.5C1462.7 1109.7 1554.3 1090.3 1645.8 1082.2C1737.3 1074 1828.7 1077 1874.3 1078.5L1920 1080L1920 1621L1874.3 1621C1828.7 1621 1737.3 1621 1645.8 1621C1554.3 1621 1462.7 1621 1371.2 1621C1279.7 1621 1188.3 1621 1097 1621C1005.7 1621 914.3 1621 823 1621C731.7 1621 640.3 1621 548.8 1621C457.3 1621 365.7 1621 274.2 1621C182.7 1621 91.3 1621 45.7 1621L0 1621Z" fill="#454a4f"></path><path d="M0 1315L45.7 1307.3C91.3 1299.7 182.7 1284.3 274.2 1270.8C365.7 1257.3 457.3 1245.7 548.8 1233.7C640.3 1221.7 731.7 1209.3 823 1224.3C914.3 1239.3 1005.7 1281.7 1097 1312.3C1188.3 1343 1279.7 1362 1371.2 1339C1462.7 1316 1554.3 1251 1645.8 1217.8C1737.3 1184.7 1828.7 1183.3 1874.3 1182.7L1920 1182L1920 1621L1874.3 1621C1828.7 1621 1737.3 1621 1645.8 1621C1554.3 1621 1462.7 1621 1371.2 1621C1279.7 1621 1188.3 1621 1097 1621C1005.7 1621 914.3 1621 823 1621C731.7 1621 640.3 1621 548.8 1621C457.3 1621 365.7 1621 274.2 1621C182.7 1621 91.3 1621 45.7 1621L0 1621Z" fill="#555e69"></path><path d="M0 1445L45.7 1428C91.3 1411 182.7 1377 274.2 1379.7C365.7 1382.3 457.3 1421.7 548.8 1423.7C640.3 1425.7 731.7 1390.3 823 1381.5C914.3 1372.7 1005.7 1390.3 1097 1401.3C1188.3 1412.3 1279.7 1416.7 1371.2 1398.7C1462.7 1380.7 1554.3 1340.3 1645.8 1346.7C1737.3 1353 1828.7 1406 1874.3 1432.5L1920 1459L1920 1621L1874.3 1621C1828.7 1621 1737.3 1621 1645.8 1621C1554.3 1621 1462.7 1621 1371.2 1621C1279.7 1621 1188.3 1621 1097 1621C1005.7 1621 914.3 1621 823 1621C731.7 1621 640.3 1621 548.8 1621C457.3 1621 365.7 1621 274.2 1621C182.7 1621 91.3 1621 45.7 1621L0 1621Z" fill="#657484"></path><path d="M0 1536L45.7 1529.2C91.3 1522.3 182.7 1508.7 274.2 1490.2C365.7 1471.7 457.3 1448.3 548.8 1455.2C640.3 1462 731.7 1499 823 1518.3C914.3 1537.7 1005.7 1539.3 1097 1521.5C1188.3 1503.7 1279.7 1466.3 1371.2 1458C1462.7 1449.7 1554.3 1470.3 1645.8 1489.7C1737.3 1509 1828.7 1527 1874.3 1536L1920 1545L1920 1621L1874.3 1621C1828.7 1621 1737.3 1621 1645.8 1621C1554.3 1621 1462.7 1621 1371.2 1621C1279.7 1621 1188.3 1621 1097 1621C1005.7 1621 914.3 1621 823 1621C731.7 1621 640.3 1621 548.8 1621C457.3 1621 365.7 1621 274.2 1621C182.7 1621 91.3 1621 45.7 1621L0 1621Z" fill="#748aa0"></path></svg>