<svg id="visual" viewBox="0 0 1940 1080" width="1940" height="1080" xmlns="http://www.w3.org/2000/svg" xmlns:xlink="http://www.w3.org/1999/xlink" version="1.1"><rect x="0" y="0" width="1940" height="1080" fill="#ffffff"></rect><path d="M0 719L46.2 732.5C92.3 746 184.7 773 277 770.8C369.3 768.7 461.7 737.3 554 737C646.3 736.7 738.7 767.3 831.2 778.7C923.7 790 1016.3 782 1108.8 776.8C1201.3 771.7 1293.7 769.3 1386 772.5C1478.3 775.7 1570.7 784.3 1663 769.3C1755.3 754.3 1847.7 715.7 1893.8 696.3L1940 677L1940 1081L1893.8 1081C1847.7 1081 1755.3 1081 1663 1081C1570.7 1081 1478.3 1081 1386 1081C1293.7 1081 1201.3 1081 1108.8 1081C1016.3 1081 923.7 1081 831.2 1081C738.7 1081 646.3 1081 554 1081C461.7 1081 369.3 1081 277 1081C184.7 1081 92.3 1081 46.2 1081L0 1081Z" fill="#9f9f9f"></path><path d="M0 852L46.2 842.3C92.3 832.7 184.7 813.3 277 794.8C369.3 776.3 461.7 758.7 554 754.3C646.3 750 738.7 759 831.2 779.3C923.7 799.7 1016.3 831.3 1108.8 845.8C1201.3 860.3 1293.7 857.7 1386 833.2C1478.3 808.7 1570.7 762.3 1663 763.7C1755.3 765 1847.7 814 1893.8 838.5L1940 863L1940 1081L1893.8 1081C1847.7 1081 1755.3 1081 1663 1081C1570.7 1081 1478.3 1081 1386 1081C1293.7 1081 1201.3 1081 1108.8 1081C1016.3 1081 923.7 1081 831.2 1081C738.7 1081 646.3 1081 554 1081C461.7 1081 369.3 1081 277 1081C184.7 1081 92.3 1081 46.2 1081L0 1081Z" fill="#75787d"></path><path d="M0 808L46.2 823.3C92.3 838.7 184.7 869.3 277 879.2C369.3 889 461.7 878 554 865.8C646.3 853.7 738.7 840.3 831.2 828.2C923.7 816 1016.3 805 1108.8 818.8C1201.3 832.7 1293.7 871.3 1386 877.7C1478.3 884 1570.7 858 1663 853.7C1755.3 849.3 1847.7 866.7 1893.8 875.3L1940 884L1940 1081L1893.8 1081C1847.7 1081 1755.3 1081 1663 1081C1570.7 1081 1478.3 1081 1386 1081C1293.7 1081 1201.3 1081 1108.8 1081C1016.3 1081 923.7 1081 831.2 1081C738.7 1081 646.3 1081 554 1081C461.7 1081 369.3 1081 277 1081C184.7 1081 92.3 1081 46.2 1081L0 1081Z" fill="#4d535d"></path><path d="M0 960L46.2 959.3C92.3 958.7 184.7 957.3 277 952.8C369.3 948.3 461.7 940.7 554 938.2C646.3 935.7 738.7 938.3 831.2 931.8C923.7 925.3 1016.3 909.7 1108.8 913.2C1201.3 916.7 1293.7 939.3 1386 939.2C1478.3 939 1570.7 916 1663 905.8C1755.3 895.7 1847.7 898.3 1893.8 899.7L1940 901L1940 1081L1893.8 1081C1847.7 1081 1755.3 1081 1663 1081C1570.7 1081 1478.3 1081 1386 1081C1293.7 1081 1201.3 1081 1108.8 1081C1016.3 1081 923.7 1081 831.2 1081C738.7 1081 646.3 1081 554 1081C461.7 1081 369.3 1081 277 1081C184.7 1081 92.3 1081 46.2 1081L0 1081Z" fill="#27313e"></path><path d="M0 950L46.2 956.5C92.3 963 184.7 976 277 977.2C369.3 978.3 461.7 967.7 554 961.5C646.3 955.3 738.7 953.7 831.2 963.3C923.7 973 1016.3 994 1108.8 994.3C1201.3 994.7 1293.7 974.3 1386 965.7C1478.3 957 1570.7 960 1663 971.3C1755.3 982.7 1847.7 1002.3 1893.8 1012.2L1940 1022L1940 1081L1893.8 1081C1847.7 1081 1755.3 1081 1663 1081C1570.7 1081 1478.3 1081 1386 1081C1293.7 1081 1201.3 1081 1108.8 1081C1016.3 1081 923.7 1081 831.2 1081C738.7 1081 646.3 1081 554 1081C461.7 1081 369.3 1081 277 1081C184.7 1081 92.3 1081 46.2 1081L0 1081Z" fill="#001122"></path></svg>